<mxfile host="Electron" modified="2023-04-22T10:45:56.252Z" agent="Mozilla/5.0 (X11; Linux x86_64) AppleWebKit/537.36 (KHTML, like Gecko) draw.io/21.1.2 Chrome/106.0.5249.199 Electron/21.4.3 Safari/537.36" etag="d8UuWKspOreUDBPjMRWC" version="21.1.2" type="device">
  <diagram name="Page-1" id="FUFa9jqPCzs9HxzX1R3K">
    <mxGraphModel dx="1434" dy="852" grid="1" gridSize="10" guides="1" tooltips="1" connect="1" arrows="1" fold="1" page="1" pageScale="1" pageWidth="850" pageHeight="1100" math="0" shadow="0">
      <root>
        <mxCell id="0" />
        <mxCell id="1" parent="0" />
        <mxCell id="3wblzy1XHl_DWWg0G7P6-25" value="Credentials&lt;br&gt;and&lt;br&gt;Payload" style="edgeStyle=orthogonalEdgeStyle;rounded=0;orthogonalLoop=1;jettySize=auto;html=1;exitX=0.5;exitY=1;exitDx=0;exitDy=0;entryX=0.5;entryY=0;entryDx=0;entryDy=0;" parent="1" source="3wblzy1XHl_DWWg0G7P6-14" target="3wblzy1XHl_DWWg0G7P6-16" edge="1">
          <mxGeometry relative="1" as="geometry" />
        </mxCell>
        <mxCell id="3wblzy1XHl_DWWg0G7P6-14" value="agartex-app" style="rounded=0;whiteSpace=wrap;html=1;fillColor=#d5e8d4;strokeColor=#82b366;" parent="1" vertex="1">
          <mxGeometry x="460" y="280" width="120" height="40" as="geometry" />
        </mxCell>
        <mxCell id="3wblzy1XHl_DWWg0G7P6-36" value="agartex-service" style="swimlane;horizontal=0;whiteSpace=wrap;html=1;fillColor=#dae8fc;strokeColor=#6c8ebf;" parent="1" vertex="1">
          <mxGeometry x="183" y="390" width="485" height="230" as="geometry" />
        </mxCell>
        <mxCell id="3wblzy1XHl_DWWg0G7P6-35" style="edgeStyle=orthogonalEdgeStyle;rounded=0;orthogonalLoop=1;jettySize=auto;html=1;exitX=0.5;exitY=1;exitDx=0;exitDy=0;entryX=0.5;entryY=0;entryDx=0;entryDy=0;" parent="3wblzy1XHl_DWWg0G7P6-36" source="3wblzy1XHl_DWWg0G7P6-16" target="3wblzy1XHl_DWWg0G7P6-18" edge="1">
          <mxGeometry relative="1" as="geometry" />
        </mxCell>
        <mxCell id="vltVSBaYRwaNU6VDjKT1-15" style="edgeStyle=orthogonalEdgeStyle;rounded=0;orthogonalLoop=1;jettySize=auto;html=1;exitX=0.5;exitY=1;exitDx=0;exitDy=0;entryX=0.5;entryY=0;entryDx=0;entryDy=0;" parent="3wblzy1XHl_DWWg0G7P6-36" source="3wblzy1XHl_DWWg0G7P6-19" target="vltVSBaYRwaNU6VDjKT1-12" edge="1">
          <mxGeometry relative="1" as="geometry">
            <Array as="points">
              <mxPoint x="97" y="160" />
              <mxPoint x="257" y="160" />
            </Array>
          </mxGeometry>
        </mxCell>
        <mxCell id="3wblzy1XHl_DWWg0G7P6-19" value="agartex-authentication" style="rounded=0;whiteSpace=wrap;html=1;fillColor=#fff2cc;strokeColor=#d6b656;" parent="3wblzy1XHl_DWWg0G7P6-36" vertex="1">
          <mxGeometry x="37" y="10" width="120" height="40" as="geometry" />
        </mxCell>
        <mxCell id="3wblzy1XHl_DWWg0G7P6-16" value="gateway" style="rounded=0;whiteSpace=wrap;html=1;fillColor=#f5f5f5;strokeColor=#666666;fontColor=#333333;" parent="3wblzy1XHl_DWWg0G7P6-36" vertex="1">
          <mxGeometry x="277" y="10" width="120" height="40" as="geometry" />
        </mxCell>
        <mxCell id="3wblzy1XHl_DWWg0G7P6-30" value="Convert Credentials&lt;br&gt;into User" style="edgeStyle=orthogonalEdgeStyle;rounded=0;orthogonalLoop=1;jettySize=auto;html=1;exitX=0;exitY=0.5;exitDx=0;exitDy=0;entryX=1;entryY=0.5;entryDx=0;entryDy=0;labelBackgroundColor=default;" parent="3wblzy1XHl_DWWg0G7P6-36" source="3wblzy1XHl_DWWg0G7P6-16" target="3wblzy1XHl_DWWg0G7P6-19" edge="1">
          <mxGeometry relative="1" as="geometry" />
        </mxCell>
        <mxCell id="vltVSBaYRwaNU6VDjKT1-14" style="edgeStyle=orthogonalEdgeStyle;rounded=0;orthogonalLoop=1;jettySize=auto;html=1;entryX=0.5;entryY=0;entryDx=0;entryDy=0;" parent="3wblzy1XHl_DWWg0G7P6-36" source="3wblzy1XHl_DWWg0G7P6-17" target="vltVSBaYRwaNU6VDjKT1-12" edge="1">
          <mxGeometry relative="1" as="geometry" />
        </mxCell>
        <mxCell id="3wblzy1XHl_DWWg0G7P6-17" value="agartex-&lt;br&gt;collaboration" style="rounded=0;whiteSpace=wrap;html=1;fillColor=#fff2cc;strokeColor=#d6b656;" parent="3wblzy1XHl_DWWg0G7P6-36" vertex="1">
          <mxGeometry x="197" y="100" width="120" height="40" as="geometry" />
        </mxCell>
        <mxCell id="3wblzy1XHl_DWWg0G7P6-34" value="User and&lt;br&gt;Payload" style="edgeStyle=orthogonalEdgeStyle;rounded=0;orthogonalLoop=1;jettySize=auto;html=1;exitX=0.5;exitY=1;exitDx=0;exitDy=0;entryX=0.5;entryY=0;entryDx=0;entryDy=0;" parent="3wblzy1XHl_DWWg0G7P6-36" source="3wblzy1XHl_DWWg0G7P6-16" target="3wblzy1XHl_DWWg0G7P6-17" edge="1">
          <mxGeometry x="-0.6154" relative="1" as="geometry">
            <mxPoint as="offset" />
          </mxGeometry>
        </mxCell>
        <mxCell id="vltVSBaYRwaNU6VDjKT1-16" style="edgeStyle=orthogonalEdgeStyle;rounded=0;orthogonalLoop=1;jettySize=auto;html=1;exitX=0.5;exitY=1;exitDx=0;exitDy=0;" parent="3wblzy1XHl_DWWg0G7P6-36" source="3wblzy1XHl_DWWg0G7P6-18" edge="1">
          <mxGeometry relative="1" as="geometry">
            <mxPoint x="257" y="180" as="targetPoint" />
          </mxGeometry>
        </mxCell>
        <mxCell id="3wblzy1XHl_DWWg0G7P6-18" value="agartex-&lt;br&gt;compilation" style="rounded=0;whiteSpace=wrap;html=1;fillColor=#fff2cc;strokeColor=#d6b656;" parent="3wblzy1XHl_DWWg0G7P6-36" vertex="1">
          <mxGeometry x="357" y="100" width="120" height="40" as="geometry" />
        </mxCell>
        <mxCell id="vltVSBaYRwaNU6VDjKT1-12" value="agartex-&lt;br&gt;resource-management" style="rounded=0;whiteSpace=wrap;html=1;fillColor=#fff2cc;strokeColor=#d6b656;" parent="3wblzy1XHl_DWWg0G7P6-36" vertex="1">
          <mxGeometry x="177" y="180" width="160" height="40" as="geometry" />
        </mxCell>
        <mxCell id="3wblzy1XHl_DWWg0G7P6-41" value="Project&lt;br&gt;Data" style="shape=cylinder3;whiteSpace=wrap;html=1;boundedLbl=1;backgroundOutline=1;size=6.682926829268354;fillColor=#d5e8d4;strokeColor=#82b366;" parent="1" vertex="1">
          <mxGeometry x="560" y="700" width="80" height="60" as="geometry" />
        </mxCell>
        <mxCell id="3wblzy1XHl_DWWg0G7P6-39" value="User&lt;br&gt;Data" style="shape=cylinder3;whiteSpace=wrap;html=1;boundedLbl=1;backgroundOutline=1;size=6.682926829268354;fillColor=#e1d5e7;strokeColor=#9673a6;" parent="1" vertex="1">
          <mxGeometry x="240" y="700" width="80" height="60" as="geometry" />
        </mxCell>
        <mxCell id="3wblzy1XHl_DWWg0G7P6-40" value="Project&lt;br&gt;Metadata" style="shape=cylinder3;whiteSpace=wrap;html=1;boundedLbl=1;backgroundOutline=1;size=6.682926829268354;fillColor=#e1d5e7;strokeColor=#9673a6;" parent="1" vertex="1">
          <mxGeometry x="400" y="700" width="80" height="60" as="geometry" />
        </mxCell>
        <mxCell id="vltVSBaYRwaNU6VDjKT1-11" style="edgeStyle=orthogonalEdgeStyle;rounded=0;orthogonalLoop=1;jettySize=auto;html=1;" parent="1" target="3wblzy1XHl_DWWg0G7P6-40" edge="1">
          <mxGeometry relative="1" as="geometry">
            <mxPoint x="440" y="610" as="sourcePoint" />
          </mxGeometry>
        </mxCell>
        <mxCell id="vltVSBaYRwaNU6VDjKT1-17" style="edgeStyle=orthogonalEdgeStyle;rounded=0;orthogonalLoop=1;jettySize=auto;html=1;exitX=0.5;exitY=1;exitDx=0;exitDy=0;" parent="1" source="vltVSBaYRwaNU6VDjKT1-12" target="3wblzy1XHl_DWWg0G7P6-39" edge="1">
          <mxGeometry relative="1" as="geometry">
            <Array as="points">
              <mxPoint x="440" y="630" />
              <mxPoint x="280" y="630" />
            </Array>
          </mxGeometry>
        </mxCell>
        <mxCell id="vltVSBaYRwaNU6VDjKT1-18" style="edgeStyle=orthogonalEdgeStyle;rounded=0;orthogonalLoop=1;jettySize=auto;html=1;exitX=0.5;exitY=1;exitDx=0;exitDy=0;entryX=0.5;entryY=0;entryDx=0;entryDy=0;entryPerimeter=0;" parent="1" source="vltVSBaYRwaNU6VDjKT1-12" target="3wblzy1XHl_DWWg0G7P6-41" edge="1">
          <mxGeometry relative="1" as="geometry">
            <Array as="points">
              <mxPoint x="440" y="630" />
              <mxPoint x="600" y="630" />
            </Array>
          </mxGeometry>
        </mxCell>
        <mxCell id="3wblzy1XHl_DWWg0G7P6-43" value="postgres" style="rounded=0;whiteSpace=wrap;html=1;fillColor=#f8cecc;strokeColor=#b85450;" parent="1" vertex="1">
          <mxGeometry x="220" y="640" width="280" height="40" as="geometry" />
        </mxCell>
      </root>
    </mxGraphModel>
  </diagram>
</mxfile>
